<svg width="169" height="35" viewBox="0 0 169 35" fill="none" xmlns="http://www.w3.org/2000/svg">
<path d="M52.6477 23V11.3636H54.7557V21.233H59.8807V23H52.6477ZM61.6193 23V14.2727H63.6761V23H61.6193ZM62.6534 13.0341C62.3277 13.0341 62.0473 12.9261 61.8125 12.7102C61.5777 12.4905 61.4602 12.2273 61.4602 11.9205C61.4602 11.6098 61.5777 11.3466 61.8125 11.1307C62.0473 10.911 62.3277 10.8011 62.6534 10.8011C62.983 10.8011 63.2633 10.911 63.4943 11.1307C63.7292 11.3466 63.8466 11.6098 63.8466 11.9205C63.8466 12.2273 63.7292 12.4905 63.4943 12.7102C63.2633 12.9261 62.983 13.0341 62.6534 13.0341ZM67.848 17.8864V23H65.7912V14.2727H67.7571V15.7557H67.8594C68.0601 15.267 68.3802 14.8788 68.8196 14.5909C69.2628 14.303 69.8101 14.1591 70.4616 14.1591C71.0639 14.1591 71.5885 14.2879 72.0355 14.5455C72.4863 14.803 72.8348 15.1761 73.081 15.6648C73.331 16.1534 73.4541 16.7462 73.4503 17.4432V23H71.3935V17.7614C71.3935 17.178 71.242 16.7216 70.9389 16.392C70.6397 16.0625 70.2249 15.8977 69.6946 15.8977C69.3348 15.8977 69.0147 15.9773 68.7344 16.1364C68.4579 16.2917 68.2401 16.517 68.081 16.8125C67.9257 17.108 67.848 17.4659 67.848 17.8864ZM77.4162 20.2614L77.4105 17.7784H77.7401L80.8764 14.2727H83.2798L79.4219 18.5682H78.9957L77.4162 20.2614ZM75.5412 23V11.3636H77.598V23H75.5412ZM81.0185 23L78.1776 19.0284L79.5639 17.5795L83.4787 23H81.0185ZM88.1548 23.1705C87.2798 23.1705 86.5241 22.9886 85.8878 22.625C85.2552 22.2576 84.7685 21.7386 84.4276 21.0682C84.0866 20.3939 83.9162 19.6004 83.9162 18.6875C83.9162 17.7898 84.0866 17.0019 84.4276 16.3239C84.7723 15.642 85.2533 15.1117 85.8707 14.733C86.4882 14.3504 87.2135 14.1591 88.0469 14.1591C88.5848 14.1591 89.0923 14.2462 89.5696 14.4205C90.0507 14.5909 90.4749 14.8561 90.8423 15.2159C91.2135 15.5758 91.5052 16.0341 91.7173 16.5909C91.9295 17.1439 92.0355 17.803 92.0355 18.5682V19.1989H84.8821V17.8125H90.0639C90.0601 17.4186 89.9749 17.0682 89.8082 16.7614C89.6416 16.4508 89.4086 16.2064 89.1094 16.0284C88.8139 15.8504 88.4692 15.7614 88.0753 15.7614C87.6548 15.7614 87.2855 15.8636 86.9673 16.0682C86.6491 16.2689 86.401 16.5341 86.223 16.8636C86.0488 17.1894 85.9598 17.5473 85.956 17.9375V19.1477C85.956 19.6553 86.0488 20.0909 86.2344 20.4545C86.42 20.8144 86.6795 21.0909 87.0128 21.2841C87.3461 21.4735 87.7363 21.5682 88.1832 21.5682C88.4825 21.5682 88.7533 21.5265 88.9957 21.4432C89.2382 21.3561 89.4484 21.2292 89.6264 21.0625C89.8045 20.8958 89.9389 20.6894 90.0298 20.4432L91.9503 20.6591C91.8291 21.1667 91.598 21.6098 91.2571 21.9886C90.92 22.3636 90.4882 22.6553 89.9616 22.8636C89.4351 23.0682 88.8329 23.1705 88.1548 23.1705ZM97.0142 23.1534C96.3286 23.1534 95.715 22.9773 95.1733 22.625C94.6316 22.2727 94.2036 21.7614 93.8892 21.0909C93.5748 20.4205 93.4176 19.6061 93.4176 18.6477C93.4176 17.678 93.5767 16.8598 93.8949 16.1932C94.2169 15.5227 94.6506 15.017 95.196 14.6761C95.7415 14.3314 96.3494 14.1591 97.0199 14.1591C97.5313 14.1591 97.9517 14.2462 98.2812 14.4205C98.6108 14.5909 98.8722 14.7973 99.0653 15.0398C99.2585 15.2784 99.4081 15.5038 99.5142 15.7159H99.5994V11.3636H101.662V23H99.6392V21.625H99.5142C99.4081 21.8371 99.2547 22.0625 99.054 22.3011C98.8532 22.536 98.5881 22.7367 98.2585 22.9034C97.929 23.0701 97.5142 23.1534 97.0142 23.1534ZM97.5881 21.4659C98.0237 21.4659 98.3949 21.3485 98.7017 21.1136C99.0085 20.875 99.2415 20.5436 99.4006 20.1193C99.5597 19.6951 99.6392 19.2008 99.6392 18.6364C99.6392 18.072 99.5597 17.5814 99.4006 17.1648C99.2453 16.7481 99.0142 16.4242 98.7074 16.1932C98.4044 15.9621 98.0313 15.8466 97.5881 15.8466C97.1297 15.8466 96.7472 15.9659 96.4403 16.2045C96.1335 16.4432 95.9025 16.7727 95.7472 17.1932C95.5919 17.6136 95.5142 18.0947 95.5142 18.6364C95.5142 19.1818 95.5919 19.6686 95.7472 20.0966C95.9063 20.5208 96.1392 20.8561 96.446 21.1023C96.7566 21.3447 97.1373 21.4659 97.5881 21.4659ZM106.053 11.3636V23H103.945V11.3636H106.053ZM110.301 17.8864V23H108.244V14.2727H110.21V15.7557H110.312C110.513 15.267 110.833 14.8788 111.273 14.5909C111.716 14.303 112.263 14.1591 112.915 14.1591C113.517 14.1591 114.042 14.2879 114.489 14.5455C114.939 14.803 115.288 15.1761 115.534 15.6648C115.784 16.1534 115.907 16.7462 115.903 17.4432V23H113.847V17.7614C113.847 17.178 113.695 16.7216 113.392 16.392C113.093 16.0625 112.678 15.8977 112.148 15.8977C111.788 15.8977 111.468 15.9773 111.188 16.1364C110.911 16.2917 110.693 16.517 110.534 16.8125C110.379 17.108 110.301 17.4659 110.301 17.8864Z" fill="#B370F0"/>
<rect x="0.75" y="0.75" width="167.5" height="33.5" rx="7.25" stroke="#B370F0" stroke-width="1.5"/>
</svg>
