<svg width="166" height="35" viewBox="0 0 166 35" fill="none" xmlns="http://www.w3.org/2000/svg">
<path d="M18.7045 11.3636L21.733 20.5227H21.8523L24.875 11.3636H27.1932L23.0909 23H20.4886L16.392 11.3636H18.7045ZM28.6349 23V14.2727H30.6918V23H28.6349ZM29.669 13.0341C29.3433 13.0341 29.063 12.9261 28.8281 12.7102C28.5933 12.4905 28.4759 12.2273 28.4759 11.9205C28.4759 11.6098 28.5933 11.3466 28.8281 11.1307C29.063 10.911 29.3433 10.8011 29.669 10.8011C29.9986 10.8011 30.2789 10.911 30.5099 11.1307C30.7448 11.3466 30.8622 11.6098 30.8622 11.9205C30.8622 12.2273 30.7448 12.4905 30.5099 12.7102C30.2789 12.9261 29.9986 13.0341 29.669 13.0341ZM36.6705 23.1705C35.7955 23.1705 35.0398 22.9886 34.4034 22.625C33.7708 22.2576 33.2841 21.7386 32.9432 21.0682C32.6023 20.3939 32.4318 19.6004 32.4318 18.6875C32.4318 17.7898 32.6023 17.0019 32.9432 16.3239C33.2879 15.642 33.7689 15.1117 34.3864 14.733C35.0038 14.3504 35.7292 14.1591 36.5625 14.1591C37.1004 14.1591 37.608 14.2462 38.0852 14.4205C38.5663 14.5909 38.9905 14.8561 39.358 15.2159C39.7292 15.5758 40.0208 16.0341 40.233 16.5909C40.4451 17.1439 40.5511 17.803 40.5511 18.5682V19.1989H33.3977V17.8125H38.5795C38.5758 17.4186 38.4905 17.0682 38.3239 16.7614C38.1572 16.4508 37.9242 16.2064 37.625 16.0284C37.3295 15.8504 36.9848 15.7614 36.5909 15.7614C36.1705 15.7614 35.8011 15.8636 35.483 16.0682C35.1648 16.2689 34.9167 16.5341 34.7386 16.8636C34.5644 17.1894 34.4754 17.5473 34.4716 17.9375V19.1477C34.4716 19.6553 34.5644 20.0909 34.75 20.4545C34.9356 20.8144 35.1951 21.0909 35.5284 21.2841C35.8617 21.4735 36.2519 21.5682 36.6989 21.5682C36.9981 21.5682 37.2689 21.5265 37.5114 21.4432C37.7538 21.3561 37.964 21.2292 38.142 21.0625C38.3201 20.8958 38.4545 20.6894 38.5455 20.4432L40.4659 20.6591C40.3447 21.1667 40.1136 21.6098 39.7727 21.9886C39.4356 22.3636 39.0038 22.6553 38.4773 22.8636C37.9508 23.0682 37.3485 23.1705 36.6705 23.1705ZM44.0455 23L41.5795 14.2727H43.6761L45.2102 20.4091H45.2898L46.858 14.2727H48.9318L50.5 20.375H50.5852L52.0966 14.2727H54.1989L51.7273 23H49.5852L47.9489 17.1023H47.8295L46.1932 23H44.0455ZM59.6037 23V14.2727H61.5696V15.7557H61.6719C61.8537 15.2557 62.1548 14.8655 62.5753 14.5852C62.9957 14.3011 63.4976 14.1591 64.081 14.1591C64.6719 14.1591 65.17 14.303 65.5753 14.5909C65.9844 14.875 66.2723 15.2633 66.4389 15.7557H66.5298C66.723 15.2708 67.0488 14.8845 67.5071 14.5966C67.9692 14.3049 68.5166 14.1591 69.1491 14.1591C69.9522 14.1591 70.6075 14.4129 71.1151 14.9205C71.6226 15.428 71.8764 16.1686 71.8764 17.142V23H69.8139V17.4602C69.8139 16.9186 69.67 16.5227 69.3821 16.2727C69.0942 16.0189 68.742 15.892 68.3253 15.892C67.8291 15.892 67.4408 16.0473 67.1605 16.358C66.884 16.6648 66.7457 17.0644 66.7457 17.5568V23H64.7287V17.375C64.7287 16.9242 64.5923 16.5644 64.3196 16.2955C64.0507 16.0265 63.6984 15.892 63.2628 15.892C62.9673 15.892 62.6984 15.9678 62.456 16.1193C62.2135 16.267 62.0204 16.4773 61.8764 16.75C61.7325 17.0189 61.6605 17.3333 61.6605 17.6932V23H59.6037ZM74.929 26.2727C74.6487 26.2727 74.3892 26.25 74.1506 26.2045C73.9157 26.1629 73.7282 26.1136 73.5881 26.0568L74.0653 24.4545C74.3646 24.5417 74.6316 24.5833 74.8665 24.5795C75.1013 24.5758 75.3078 24.5019 75.4858 24.358C75.6676 24.2178 75.821 23.983 75.946 23.6534L76.1222 23.1818L72.9574 14.2727H75.1392L77.1506 20.8636H77.2415L79.2585 14.2727H81.446L77.9517 24.0568C77.7888 24.5189 77.5729 24.9148 77.304 25.2443C77.035 25.5777 76.7055 25.8314 76.3153 26.0057C75.929 26.1837 75.4669 26.2727 74.929 26.2727ZM86.929 23V11.3636H91.2926C92.1866 11.3636 92.9366 11.5303 93.5426 11.8636C94.1525 12.197 94.6127 12.6553 94.9233 13.2386C95.2377 13.8182 95.3949 14.4773 95.3949 15.2159C95.3949 15.9621 95.2377 16.625 94.9233 17.2045C94.6089 17.7841 94.1449 18.2405 93.5312 18.5739C92.9176 18.9034 92.1619 19.0682 91.2642 19.0682H88.3722V17.3352H90.9801C91.5028 17.3352 91.9309 17.2443 92.2642 17.0625C92.5975 16.8807 92.8438 16.6307 93.0028 16.3125C93.1657 15.9943 93.2472 15.6288 93.2472 15.2159C93.2472 14.803 93.1657 14.4394 93.0028 14.125C92.8438 13.8106 92.5956 13.5663 92.2585 13.392C91.9252 13.214 91.4953 13.125 90.9688 13.125H89.0369V23H86.929ZM97.1349 23V14.2727H99.1293V15.7273H99.2202C99.3793 15.2235 99.652 14.8352 100.038 14.5625C100.429 14.286 100.874 14.1477 101.374 14.1477C101.487 14.1477 101.614 14.1534 101.754 14.1648C101.898 14.1723 102.018 14.1856 102.112 14.2045V16.0966C102.025 16.0663 101.887 16.0398 101.697 16.017C101.512 15.9905 101.332 15.9773 101.158 15.9773C100.783 15.9773 100.446 16.0587 100.146 16.2216C99.8509 16.3807 99.6179 16.6023 99.4474 16.8864C99.277 17.1705 99.1918 17.4981 99.1918 17.8693V23H97.1349ZM106.926 23.1705C106.074 23.1705 105.335 22.983 104.71 22.608C104.085 22.233 103.6 21.7083 103.256 21.0341C102.915 20.3598 102.744 19.572 102.744 18.6705C102.744 17.7689 102.915 16.9792 103.256 16.3011C103.6 15.6231 104.085 15.0966 104.71 14.7216C105.335 14.3466 106.074 14.1591 106.926 14.1591C107.778 14.1591 108.517 14.3466 109.142 14.7216C109.767 15.0966 110.25 15.6231 110.591 16.3011C110.936 16.9792 111.108 17.7689 111.108 18.6705C111.108 19.572 110.936 20.3598 110.591 21.0341C110.25 21.7083 109.767 22.233 109.142 22.608C108.517 22.983 107.778 23.1705 106.926 23.1705ZM106.938 21.5227C107.4 21.5227 107.786 21.3958 108.097 21.142C108.407 20.8845 108.638 20.5398 108.79 20.108C108.945 19.6761 109.023 19.1951 109.023 18.6648C109.023 18.1307 108.945 17.6477 108.79 17.2159C108.638 16.7803 108.407 16.4337 108.097 16.1761C107.786 15.9186 107.4 15.7898 106.938 15.7898C106.464 15.7898 106.07 15.9186 105.756 16.1761C105.445 16.4337 105.212 16.7803 105.057 17.2159C104.905 17.6477 104.83 18.1307 104.83 18.6648C104.83 19.1951 104.905 19.6761 105.057 20.108C105.212 20.5398 105.445 20.8845 105.756 21.142C106.07 21.3958 106.464 21.5227 106.938 21.5227ZM112.854 14.2727H114.911V23.5C114.911 24.1288 114.791 24.6477 114.553 25.0568C114.314 25.4659 113.969 25.7708 113.518 25.9716C113.068 26.1723 112.52 26.2727 111.876 26.2727C111.801 26.2727 111.731 26.2708 111.666 26.267C111.602 26.267 111.532 26.2652 111.456 26.2614V24.5852C111.513 24.589 111.564 24.5909 111.609 24.5909C111.655 24.5947 111.702 24.5966 111.751 24.5966C112.145 24.5966 112.428 24.5 112.598 24.3068C112.768 24.1174 112.854 23.839 112.854 23.4716V14.2727ZM113.876 13.0341C113.547 13.0341 113.265 12.9261 113.03 12.7102C112.799 12.4905 112.683 12.2273 112.683 11.9205C112.683 11.6098 112.799 11.3466 113.03 11.1307C113.265 10.911 113.547 10.8011 113.876 10.8011C114.202 10.8011 114.481 10.911 114.712 11.1307C114.946 11.3466 115.064 11.6098 115.064 11.9205C115.064 12.2273 114.946 12.4905 114.712 12.7102C114.481 12.9261 114.202 13.0341 113.876 13.0341ZM120.889 23.1705C120.014 23.1705 119.259 22.9886 118.622 22.625C117.99 22.2576 117.503 21.7386 117.162 21.0682C116.821 20.3939 116.651 19.6004 116.651 18.6875C116.651 17.7898 116.821 17.0019 117.162 16.3239C117.507 15.642 117.988 15.1117 118.605 14.733C119.223 14.3504 119.948 14.1591 120.781 14.1591C121.319 14.1591 121.827 14.2462 122.304 14.4205C122.785 14.5909 123.209 14.8561 123.577 15.2159C123.948 15.5758 124.24 16.0341 124.452 16.5909C124.664 17.1439 124.77 17.803 124.77 18.5682V19.1989H117.616V17.8125H122.798C122.795 17.4186 122.709 17.0682 122.543 16.7614C122.376 16.4508 122.143 16.2064 121.844 16.0284C121.548 15.8504 121.204 15.7614 120.81 15.7614C120.389 15.7614 120.02 15.8636 119.702 16.0682C119.384 16.2689 119.135 16.5341 118.957 16.8636C118.783 17.1894 118.694 17.5473 118.69 17.9375V19.1477C118.69 19.6553 118.783 20.0909 118.969 20.4545C119.154 20.8144 119.414 21.0909 119.747 21.2841C120.08 21.4735 120.471 21.5682 120.918 21.5682C121.217 21.5682 121.488 21.5265 121.73 21.4432C121.973 21.3561 122.183 21.2292 122.361 21.0625C122.539 20.8958 122.673 20.6894 122.764 20.4432L124.685 20.6591C124.563 21.1667 124.332 21.6098 123.991 21.9886C123.654 22.3636 123.223 22.6553 122.696 22.8636C122.17 23.0682 121.567 23.1705 120.889 23.1705ZM130.317 23.1705C129.446 23.1705 128.697 22.9792 128.072 22.5966C127.451 22.214 126.972 21.6856 126.635 21.0114C126.302 20.3333 126.135 19.553 126.135 18.6705C126.135 17.7841 126.305 17.0019 126.646 16.3239C126.987 15.642 127.468 15.1117 128.089 14.733C128.714 14.3504 129.453 14.1591 130.305 14.1591C131.014 14.1591 131.641 14.2898 132.186 14.5511C132.735 14.8087 133.173 15.1742 133.499 15.6477C133.824 16.1174 134.01 16.6667 134.055 17.2955H132.089C132.01 16.875 131.821 16.5246 131.521 16.2443C131.226 15.9602 130.83 15.8182 130.334 15.8182C129.913 15.8182 129.544 15.9318 129.226 16.1591C128.908 16.3826 128.66 16.7045 128.482 17.125C128.307 17.5455 128.22 18.0492 128.22 18.6364C128.22 19.2311 128.307 19.7424 128.482 20.1705C128.656 20.5947 128.9 20.9223 129.214 21.1534C129.533 21.3807 129.906 21.4943 130.334 21.4943C130.637 21.4943 130.908 21.4375 131.146 21.3239C131.389 21.2064 131.591 21.0379 131.754 20.8182C131.917 20.5985 132.029 20.3314 132.089 20.017H134.055C134.006 20.6345 133.824 21.1818 133.51 21.6591C133.196 22.1326 132.768 22.5038 132.226 22.7727C131.684 23.0379 131.048 23.1705 130.317 23.1705ZM140.102 14.2727V15.8636H135.085V14.2727H140.102ZM136.324 12.1818H138.381V20.375C138.381 20.6515 138.422 20.8636 138.506 21.0114C138.593 21.1553 138.706 21.2538 138.847 21.3068C138.987 21.3598 139.142 21.3864 139.312 21.3864C139.441 21.3864 139.559 21.3769 139.665 21.358C139.775 21.339 139.858 21.322 139.915 21.3068L140.261 22.9148C140.152 22.9527 139.994 22.9943 139.79 23.0398C139.589 23.0852 139.343 23.1117 139.051 23.1193C138.536 23.1345 138.072 23.0568 137.659 22.8864C137.246 22.7121 136.919 22.4432 136.676 22.0795C136.438 21.7159 136.32 21.2614 136.324 20.7159V12.1818ZM148.595 16.5795L146.72 16.7841C146.667 16.5947 146.574 16.4167 146.442 16.25C146.313 16.0833 146.139 15.9489 145.919 15.8466C145.699 15.7443 145.43 15.6932 145.112 15.6932C144.684 15.6932 144.324 15.786 144.033 15.9716C143.745 16.1572 143.603 16.3977 143.607 16.6932C143.603 16.947 143.696 17.1534 143.885 17.3125C144.078 17.4716 144.396 17.6023 144.839 17.7045L146.328 18.0227C147.154 18.2008 147.768 18.483 148.169 18.8693C148.574 19.2557 148.779 19.7614 148.783 20.3864C148.779 20.9356 148.618 21.4205 148.3 21.8409C147.985 22.2576 147.548 22.5833 146.987 22.8182C146.427 23.053 145.783 23.1705 145.055 23.1705C143.987 23.1705 143.127 22.947 142.476 22.5C141.824 22.0492 141.436 21.4223 141.311 20.6193L143.317 20.4261C143.408 20.8201 143.601 21.1174 143.896 21.3182C144.192 21.5189 144.576 21.6193 145.05 21.6193C145.538 21.6193 145.93 21.5189 146.226 21.3182C146.525 21.1174 146.675 20.8693 146.675 20.5739C146.675 20.3239 146.578 20.1174 146.385 19.9545C146.196 19.7917 145.9 19.6667 145.499 19.5795L144.01 19.267C143.173 19.0928 142.554 18.7992 142.152 18.3864C141.75 17.9697 141.552 17.4432 141.555 16.8068C141.552 16.2689 141.697 15.803 141.993 15.4091C142.292 15.0114 142.707 14.7045 143.237 14.4886C143.771 14.2689 144.387 14.1591 145.084 14.1591C146.107 14.1591 146.911 14.3769 147.499 14.8125C148.089 15.2481 148.455 15.8371 148.595 16.5795Z" fill="#DC5970"/>
<rect x="0.75" y="0.75" width="164.5" height="33.5" rx="7.25" stroke="#DC5970" stroke-width="1.5"/>
</svg>
