<svg width="169" height="35" viewBox="0 0 169 35" fill="none" xmlns="http://www.w3.org/2000/svg">
<path d="M18.7045 11.3636L21.733 20.5227H21.8523L24.875 11.3636H27.1932L23.0909 23H20.4886L16.392 11.3636H18.7045ZM28.6349 23V14.2727H30.6918V23H28.6349ZM29.669 13.0341C29.3433 13.0341 29.063 12.9261 28.8281 12.7102C28.5933 12.4905 28.4759 12.2273 28.4759 11.9205C28.4759 11.6098 28.5933 11.3466 28.8281 11.1307C29.063 10.911 29.3433 10.8011 29.669 10.8011C29.9986 10.8011 30.2789 10.911 30.5099 11.1307C30.7448 11.3466 30.8622 11.6098 30.8622 11.9205C30.8622 12.2273 30.7448 12.4905 30.5099 12.7102C30.2789 12.9261 29.9986 13.0341 29.669 13.0341ZM36.6705 23.1705C35.7955 23.1705 35.0398 22.9886 34.4034 22.625C33.7708 22.2576 33.2841 21.7386 32.9432 21.0682C32.6023 20.3939 32.4318 19.6004 32.4318 18.6875C32.4318 17.7898 32.6023 17.0019 32.9432 16.3239C33.2879 15.642 33.7689 15.1117 34.3864 14.733C35.0038 14.3504 35.7292 14.1591 36.5625 14.1591C37.1004 14.1591 37.608 14.2462 38.0852 14.4205C38.5663 14.5909 38.9905 14.8561 39.358 15.2159C39.7292 15.5758 40.0208 16.0341 40.233 16.5909C40.4451 17.1439 40.5511 17.803 40.5511 18.5682V19.1989H33.3977V17.8125H38.5795C38.5758 17.4186 38.4905 17.0682 38.3239 16.7614C38.1572 16.4508 37.9242 16.2064 37.625 16.0284C37.3295 15.8504 36.9848 15.7614 36.5909 15.7614C36.1705 15.7614 35.8011 15.8636 35.483 16.0682C35.1648 16.2689 34.9167 16.5341 34.7386 16.8636C34.5644 17.1894 34.4754 17.5473 34.4716 17.9375V19.1477C34.4716 19.6553 34.5644 20.0909 34.75 20.4545C34.9356 20.8144 35.1951 21.0909 35.5284 21.2841C35.8617 21.4735 36.2519 21.5682 36.6989 21.5682C36.9981 21.5682 37.2689 21.5265 37.5114 21.4432C37.7538 21.3561 37.964 21.2292 38.142 21.0625C38.3201 20.8958 38.4545 20.6894 38.5455 20.4432L40.4659 20.6591C40.3447 21.1667 40.1136 21.6098 39.7727 21.9886C39.4356 22.3636 39.0038 22.6553 38.4773 22.8636C37.9508 23.0682 37.3485 23.1705 36.6705 23.1705ZM44.0455 23L41.5795 14.2727H43.6761L45.2102 20.4091H45.2898L46.858 14.2727H48.9318L50.5 20.375H50.5852L52.0966 14.2727H54.1989L51.7273 23H49.5852L47.9489 17.1023H47.8295L46.1932 23H44.0455ZM59.6037 23V14.2727H61.5696V15.7557H61.6719C61.8537 15.2557 62.1548 14.8655 62.5753 14.5852C62.9957 14.3011 63.4976 14.1591 64.081 14.1591C64.6719 14.1591 65.17 14.303 65.5753 14.5909C65.9844 14.875 66.2723 15.2633 66.4389 15.7557H66.5298C66.723 15.2708 67.0488 14.8845 67.5071 14.5966C67.9692 14.3049 68.5166 14.1591 69.1491 14.1591C69.9522 14.1591 70.6075 14.4129 71.1151 14.9205C71.6226 15.428 71.8764 16.1686 71.8764 17.142V23H69.8139V17.4602C69.8139 16.9186 69.67 16.5227 69.3821 16.2727C69.0942 16.0189 68.742 15.892 68.3253 15.892C67.8291 15.892 67.4408 16.0473 67.1605 16.358C66.884 16.6648 66.7457 17.0644 66.7457 17.5568V23H64.7287V17.375C64.7287 16.9242 64.5923 16.5644 64.3196 16.2955C64.0507 16.0265 63.6984 15.892 63.2628 15.892C62.9673 15.892 62.6984 15.9678 62.456 16.1193C62.2135 16.267 62.0204 16.4773 61.8764 16.75C61.7325 17.0189 61.6605 17.3333 61.6605 17.6932V23H59.6037ZM74.929 26.2727C74.6487 26.2727 74.3892 26.25 74.1506 26.2045C73.9157 26.1629 73.7282 26.1136 73.5881 26.0568L74.0653 24.4545C74.3646 24.5417 74.6316 24.5833 74.8665 24.5795C75.1013 24.5758 75.3078 24.5019 75.4858 24.358C75.6676 24.2178 75.821 23.983 75.946 23.6534L76.1222 23.1818L72.9574 14.2727H75.1392L77.1506 20.8636H77.2415L79.2585 14.2727H81.446L77.9517 24.0568C77.7888 24.5189 77.5729 24.9148 77.304 25.2443C77.035 25.5777 76.7055 25.8314 76.3153 26.0057C75.929 26.1837 75.4669 26.2727 74.929 26.2727ZM86.929 23V11.3636H91.2926C92.1866 11.3636 92.9366 11.5303 93.5426 11.8636C94.1525 12.197 94.6127 12.6553 94.9233 13.2386C95.2377 13.8182 95.3949 14.4773 95.3949 15.2159C95.3949 15.9621 95.2377 16.625 94.9233 17.2045C94.6089 17.7841 94.1449 18.2405 93.5312 18.5739C92.9176 18.9034 92.1619 19.0682 91.2642 19.0682H88.3722V17.3352H90.9801C91.5028 17.3352 91.9309 17.2443 92.2642 17.0625C92.5975 16.8807 92.8438 16.6307 93.0028 16.3125C93.1657 15.9943 93.2472 15.6288 93.2472 15.2159C93.2472 14.803 93.1657 14.4394 93.0028 14.125C92.8438 13.8106 92.5956 13.5663 92.2585 13.392C91.9252 13.214 91.4953 13.125 90.9688 13.125H89.0369V23H86.929ZM100.817 23.1705C99.9645 23.1705 99.2259 22.983 98.6009 22.608C97.9759 22.233 97.491 21.7083 97.1463 21.0341C96.8054 20.3598 96.6349 19.572 96.6349 18.6705C96.6349 17.7689 96.8054 16.9792 97.1463 16.3011C97.491 15.6231 97.9759 15.0966 98.6009 14.7216C99.2259 14.3466 99.9645 14.1591 100.817 14.1591C101.669 14.1591 102.408 14.3466 103.033 14.7216C103.658 15.0966 104.141 15.6231 104.482 16.3011C104.826 16.9792 104.999 17.7689 104.999 18.6705C104.999 19.572 104.826 20.3598 104.482 21.0341C104.141 21.7083 103.658 22.233 103.033 22.608C102.408 22.983 101.669 23.1705 100.817 23.1705ZM100.828 21.5227C101.29 21.5227 101.677 21.3958 101.987 21.142C102.298 20.8845 102.529 20.5398 102.68 20.108C102.836 19.6761 102.913 19.1951 102.913 18.6648C102.913 18.1307 102.836 17.6477 102.68 17.2159C102.529 16.7803 102.298 16.4337 101.987 16.1761C101.677 15.9186 101.29 15.7898 100.828 15.7898C100.355 15.7898 99.9607 15.9186 99.6463 16.1761C99.3357 16.4337 99.1027 16.7803 98.9474 17.2159C98.7959 17.6477 98.7202 18.1307 98.7202 18.6648C98.7202 19.1951 98.7959 19.6761 98.9474 20.108C99.1027 20.5398 99.3357 20.8845 99.6463 21.142C99.9607 21.3958 100.355 21.5227 100.828 21.5227ZM106.744 23V14.2727H108.739V15.7273H108.83C108.989 15.2235 109.261 14.8352 109.648 14.5625C110.038 14.286 110.483 14.1477 110.983 14.1477C111.097 14.1477 111.223 14.1534 111.364 14.1648C111.508 14.1723 111.627 14.1856 111.722 14.2045V16.0966C111.634 16.0663 111.496 16.0398 111.307 16.017C111.121 15.9905 110.941 15.9773 110.767 15.9773C110.392 15.9773 110.055 16.0587 109.756 16.2216C109.46 16.3807 109.227 16.6023 109.057 16.8864C108.886 17.1705 108.801 17.4981 108.801 17.8693V23H106.744ZM117.915 14.2727V15.8636H112.898V14.2727H117.915ZM114.136 12.1818H116.193V20.375C116.193 20.6515 116.235 20.8636 116.318 21.0114C116.405 21.1553 116.519 21.2538 116.659 21.3068C116.799 21.3598 116.955 21.3864 117.125 21.3864C117.254 21.3864 117.371 21.3769 117.477 21.358C117.587 21.339 117.67 21.322 117.727 21.3068L118.074 22.9148C117.964 22.9527 117.807 22.9943 117.602 23.0398C117.402 23.0852 117.155 23.1117 116.864 23.1193C116.348 23.1345 115.884 23.0568 115.472 22.8864C115.059 22.7121 114.731 22.4432 114.489 22.0795C114.25 21.7159 114.133 21.2614 114.136 20.7159V12.1818ZM124.055 14.2727V15.8636H118.896V14.2727H124.055ZM120.186 23V13.4489C120.186 12.8617 120.307 12.3731 120.55 11.983C120.796 11.5928 121.125 11.3011 121.538 11.108C121.951 10.9148 122.41 10.8182 122.913 10.8182C123.269 10.8182 123.586 10.8466 123.862 10.9034C124.139 10.9602 124.343 11.0114 124.476 11.0568L124.067 12.6477C123.98 12.6212 123.87 12.5947 123.737 12.5682C123.605 12.5379 123.457 12.5227 123.294 12.5227C122.911 12.5227 122.641 12.6155 122.482 12.8011C122.326 12.983 122.249 13.2443 122.249 13.5852V23H120.186ZM129.145 23.1705C128.293 23.1705 127.554 22.983 126.929 22.608C126.304 22.233 125.819 21.7083 125.474 21.0341C125.134 20.3598 124.963 19.572 124.963 18.6705C124.963 17.7689 125.134 16.9792 125.474 16.3011C125.819 15.6231 126.304 15.0966 126.929 14.7216C127.554 14.3466 128.293 14.1591 129.145 14.1591C129.997 14.1591 130.736 14.3466 131.361 14.7216C131.986 15.0966 132.469 15.6231 132.81 16.3011C133.154 16.9792 133.327 17.7689 133.327 18.6705C133.327 19.572 133.154 20.3598 132.81 21.0341C132.469 21.7083 131.986 22.233 131.361 22.608C130.736 22.983 129.997 23.1705 129.145 23.1705ZM129.156 21.5227C129.618 21.5227 130.005 21.3958 130.315 21.142C130.626 20.8845 130.857 20.5398 131.009 20.108C131.164 19.6761 131.241 19.1951 131.241 18.6648C131.241 18.1307 131.164 17.6477 131.009 17.2159C130.857 16.7803 130.626 16.4337 130.315 16.1761C130.005 15.9186 129.618 15.7898 129.156 15.7898C128.683 15.7898 128.289 15.9186 127.974 16.1761C127.664 16.4337 127.431 16.7803 127.276 17.2159C127.124 17.6477 127.048 18.1307 127.048 18.6648C127.048 19.1951 127.124 19.6761 127.276 20.108C127.431 20.5398 127.664 20.8845 127.974 21.142C128.289 21.3958 128.683 21.5227 129.156 21.5227ZM137.129 11.3636V23H135.072V11.3636H137.129ZM139.244 23V14.2727H141.301V23H139.244ZM140.278 13.0341C139.953 13.0341 139.672 12.9261 139.438 12.7102C139.203 12.4905 139.085 12.2273 139.085 11.9205C139.085 11.6098 139.203 11.3466 139.438 11.1307C139.672 10.911 139.953 10.8011 140.278 10.8011C140.608 10.8011 140.888 10.911 141.119 11.1307C141.354 11.3466 141.472 11.6098 141.472 11.9205C141.472 12.2273 141.354 12.4905 141.119 12.7102C140.888 12.9261 140.608 13.0341 140.278 13.0341ZM147.223 23.1705C146.371 23.1705 145.632 22.983 145.007 22.608C144.382 22.233 143.897 21.7083 143.553 21.0341C143.212 20.3598 143.041 19.572 143.041 18.6705C143.041 17.7689 143.212 16.9792 143.553 16.3011C143.897 15.6231 144.382 15.0966 145.007 14.7216C145.632 14.3466 146.371 14.1591 147.223 14.1591C148.075 14.1591 148.814 14.3466 149.439 14.7216C150.064 15.0966 150.547 15.6231 150.888 16.3011C151.232 16.9792 151.405 17.7689 151.405 18.6705C151.405 19.572 151.232 20.3598 150.888 21.0341C150.547 21.7083 150.064 22.233 149.439 22.608C148.814 22.983 148.075 23.1705 147.223 23.1705ZM147.234 21.5227C147.696 21.5227 148.083 21.3958 148.393 21.142C148.704 20.8845 148.935 20.5398 149.087 20.108C149.242 19.6761 149.32 19.1951 149.32 18.6648C149.32 18.1307 149.242 17.6477 149.087 17.2159C148.935 16.7803 148.704 16.4337 148.393 16.1761C148.083 15.9186 147.696 15.7898 147.234 15.7898C146.761 15.7898 146.367 15.9186 146.053 16.1761C145.742 16.4337 145.509 16.7803 145.354 17.2159C145.202 17.6477 145.126 18.1307 145.126 18.6648C145.126 19.1951 145.202 19.6761 145.354 20.108C145.509 20.5398 145.742 20.8845 146.053 21.142C146.367 21.3958 146.761 21.5227 147.234 21.5227Z" fill="#DC5970"/>
<rect x="0.75" y="0.75" width="167.5" height="33.5" rx="7.25" stroke="#DC5970" stroke-width="1.5"/>
</svg>
